HIERARCHY
ROOT Hips
{
	OFFSET 0.000000 121.760803 0.000000
	CHANNELS 6 Xposition Yposition Zposition Xrotation Yrotation Zrotation 
	JOINT Spine
	{
		OFFSET 0.072000 7.257294 -0.789700
		CHANNELS 3 Xrotation Yrotation Zrotation
		JOINT Spine1
		{
			OFFSET 0.000000 12.508769 -0.658067
			CHANNELS 3 Xrotation Yrotation Zrotation
			JOINT Spine1_split
			{
				OFFSET 0.000000 12.508769 -0.658067
				CHANNELS 3 Xrotation Yrotation Zrotation
				JOINT Spine2
				{
					OFFSET 0.000000 12.508769 -0.658067
					CHANNELS 3 Xrotation Yrotation Zrotation
					JOINT Neck
					{
						OFFSET 0.000000 14.033295 7.520400
						CHANNELS 3 Xrotation Yrotation Zrotation
						JOINT Head
						{
							OFFSET 0.000000 8.198502 5.703100
							CHANNELS 3 Xrotation Yrotation Zrotation
							JOINT HeadTop_End
							{
								OFFSET 0.000000 17.760803 13.332701
								CHANNELS 3 Xrotation Yrotation Zrotation
								End Site
								{
									OFFSET 0.000000 0.000000 0.000000
								}
							}
						}
					}
					JOINT LeftShoulder
					{
						OFFSET 6.292450 5.785301 -0.669000
						CHANNELS 3 Xrotation Yrotation Zrotation
						JOINT LeftShoulder_split
						{
							OFFSET 6.292450 5.785301 -0.669000
							CHANNELS 3 Xrotation Yrotation Zrotation
							JOINT LeftArm
							{
								OFFSET 13.907140 -6.093903 1.965100
								CHANNELS 3 Xrotation Yrotation Zrotation
								JOINT LeftForeArm
								{
									OFFSET 34.140198 0.000000 0.000000
									CHANNELS 3 Xrotation Yrotation Zrotation
									JOINT LeftHand
									{
										OFFSET 40.960209 0.000000 0.000000
										CHANNELS 3 Xrotation Yrotation Zrotation
										JOINT LeftHandThumb1
										{
											OFFSET 10.006996 -7.170425 9.573125
											CHANNELS 3 Xrotation Yrotation Zrotation
											JOINT LeftHandThumb2
											{
												OFFSET 1.835007 -1.059448 1.059443
												CHANNELS 3 Xrotation Yrotation Zrotation
												JOINT LeftHandThumb3
												{
													OFFSET 2.112267 -1.219513 1.219518
													CHANNELS 3 Xrotation Yrotation Zrotation
													JOINT LeftHandThumb4
													{
														OFFSET 4.843811 -2.796570 2.796576
														CHANNELS 3 Xrotation Yrotation Zrotation
														End Site
														{
															OFFSET 0.000000 0.000000 0.000000
														}
													}
												}
											}
										}
										JOINT LeftHandIndex1
										{
											OFFSET 18.389847 -0.922348 4.596882
											CHANNELS 3 Xrotation Yrotation Zrotation
											JOINT LeftHandIndex2
											{
												OFFSET 4.711273 0.000000 0.000000
												CHANNELS 3 Xrotation Yrotation Zrotation
												JOINT LeftHandIndex3
												{
													OFFSET 2.886131 0.000000 0.000000
													CHANNELS 3 Xrotation Yrotation Zrotation
													JOINT LeftHandIndex4
													{
														OFFSET 6.145912 0.000000 0.000000
														CHANNELS 3 Xrotation Yrotation Zrotation
														End Site
														{
															OFFSET 0.000000 0.000000 0.000000
														}
													}
												}
											}
										}
										JOINT LeftHandMiddle1
										{
											OFFSET 18.013008 0.000000 0.000000
											CHANNELS 3 Xrotation Yrotation Zrotation
											JOINT LeftHandMiddle2
											{
												OFFSET 4.946693 0.000000 0.000000
												CHANNELS 3 Xrotation Yrotation Zrotation
												JOINT LeftHandMiddle3
												{
													OFFSET 3.342232 0.000000 0.000000
													CHANNELS 3 Xrotation Yrotation Zrotation
													JOINT LeftHandMiddle4
													{
														OFFSET 4.461754 0.000000 0.000000
														CHANNELS 3 Xrotation Yrotation Zrotation
														End Site
														{
															OFFSET 0.000000 0.000000 0.000000
														}
													}
												}
											}
										}
										JOINT LeftHandRing1
										{
											OFFSET 15.849892 -0.102921 -4.126150
											CHANNELS 3 Xrotation Yrotation Zrotation
											JOINT LeftHandRing2
											{
												OFFSET 3.527054 0.000000 0.000000
												CHANNELS 3 Xrotation Yrotation Zrotation
												JOINT LeftHandRing3
												{
													OFFSET 2.961098 0.000000 0.000000
													CHANNELS 3 Xrotation Yrotation Zrotation
													JOINT LeftHandRing4
													{
														OFFSET 4.927200 0.000000 0.000000
														CHANNELS 3 Xrotation Yrotation Zrotation
														End Site
														{
															OFFSET 0.000000 0.000000 0.000000
														}
													}
												}
											}
										}
										JOINT LeftHandPinky1
										{
											OFFSET 12.791824 -0.832031 -6.799156
											CHANNELS 3 Xrotation Yrotation Zrotation
											JOINT LeftHandPinky2
											{
												OFFSET 3.327133 0.000000 0.000000
												CHANNELS 3 Xrotation Yrotation Zrotation
												JOINT LeftHandPinky3
												{
													OFFSET 3.014900 0.000000 0.000000
													CHANNELS 3 Xrotation Yrotation Zrotation
													JOINT LeftHandPinky4
													{
														OFFSET 5.847786 0.000000 0.000000
														CHANNELS 3 Xrotation Yrotation Zrotation
														End Site
														{
															OFFSET 0.000000 0.000000 0.000000
														}
													}
												}
											}
										}
									}
								}
							}
						}
					}
					JOINT RightShoulder
					{
						OFFSET -6.292450 5.785301 -0.669000
						CHANNELS 3 Xrotation Yrotation Zrotation
						JOINT RightShoulder_split
						{
							OFFSET -6.292450 5.785301 -0.669000
							CHANNELS 3 Xrotation Yrotation Zrotation
							JOINT RightArm
							{
								OFFSET -13.907140 -6.093903 1.965100
								CHANNELS 3 Xrotation Yrotation Zrotation
								JOINT RightForeArm
								{
									OFFSET -34.140198 0.000000 0.000000
									CHANNELS 3 Xrotation Yrotation Zrotation
									JOINT RightHand
									{
										OFFSET -40.960209 0.000000 0.000000
										CHANNELS 3 Xrotation Yrotation Zrotation
										JOINT RightHandThumb1
										{
											OFFSET -10.007050 -7.170456 9.573117
											CHANNELS 3 Xrotation Yrotation Zrotation
											JOINT RightHandThumb2
											{
												OFFSET -1.835007 -1.059448 1.059443
												CHANNELS 3 Xrotation Yrotation Zrotation
												JOINT RightHandThumb3
												{
													OFFSET -2.112267 -1.219513 1.219518
													CHANNELS 3 Xrotation Yrotation Zrotation
													JOINT RightHandThumb4
													{
														OFFSET -4.843834 -2.796585 2.796590
														CHANNELS 3 Xrotation Yrotation Zrotation
														End Site
														{
															OFFSET 0.000000 0.000000 0.000000
														}
													}
												}
											}
										}
										JOINT RightHandIndex1
										{
											OFFSET -18.389870 -0.922424 4.596786
											CHANNELS 3 Xrotation Yrotation Zrotation
											JOINT RightHandIndex2
											{
												OFFSET -4.711273 0.000000 0.000000
												CHANNELS 3 Xrotation Yrotation Zrotation
												JOINT RightHandIndex3
												{
													OFFSET -2.886131 0.000000 0.000000
													CHANNELS 3 Xrotation Yrotation Zrotation
													JOINT RightHandIndex4
													{
														OFFSET -6.145920 0.000000 0.000000
														CHANNELS 3 Xrotation Yrotation Zrotation
														End Site
														{
															OFFSET 0.000000 0.000000 0.000000
														}
													}
												}
											}
										}
										JOINT RightHandMiddle1
										{
											OFFSET -18.013008 0.000000 0.000000
											CHANNELS 3 Xrotation Yrotation Zrotation
											JOINT RightHandMiddle2
											{
												OFFSET -4.946693 0.000000 0.000000
												CHANNELS 3 Xrotation Yrotation Zrotation
												JOINT RightHandMiddle3
												{
													OFFSET -3.342232 0.000000 0.000000
													CHANNELS 3 Xrotation Yrotation Zrotation
													JOINT RightHandMiddle4
													{
														OFFSET -4.461754 0.000000 0.000000
														CHANNELS 3 Xrotation Yrotation Zrotation
														End Site
														{
															OFFSET 0.000000 0.000000 0.000000
														}
													}
												}
											}
										}
										JOINT RightHandRing1
										{
											OFFSET -15.849876 -0.102936 -4.126237
											CHANNELS 3 Xrotation Yrotation Zrotation
											JOINT RightHandRing2
											{
												OFFSET -3.527054 0.000000 0.000000
												CHANNELS 3 Xrotation Yrotation Zrotation
												JOINT RightHandRing3
												{
													OFFSET -2.961098 0.000000 0.000000
													CHANNELS 3 Xrotation Yrotation Zrotation
													JOINT RightHandRing4
													{
														OFFSET -4.927200 0.000000 0.000000
														CHANNELS 3 Xrotation Yrotation Zrotation
														End Site
														{
															OFFSET 0.000000 0.000000 0.000000
														}
													}
												}
											}
										}
										JOINT RightHandPinky1
										{
											OFFSET -12.791786 -0.832077 -6.799222
											CHANNELS 3 Xrotation Yrotation Zrotation
											JOINT RightHandPinky2
											{
												OFFSET -3.327133 0.000000 0.000000
												CHANNELS 3 Xrotation Yrotation Zrotation
												JOINT RightHandPinky3
												{
													OFFSET -3.014900 0.000000 0.000000
													CHANNELS 3 Xrotation Yrotation Zrotation
													JOINT RightHandPinky4
													{
														OFFSET -5.847786 0.000000 0.000000
														CHANNELS 3 Xrotation Yrotation Zrotation
														End Site
														{
															OFFSET 0.000000 0.000000 0.000000
														}
													}
												}
											}
										}
									}
								}
							}
						}
					}
				}
			}
		}
	}
	JOINT LeftUpLeg
	{
		OFFSET 13.026900 -6.336304 -1.092800
		CHANNELS 3 Xrotation Yrotation Zrotation
		JOINT LeftLeg
		{
			OFFSET 0.524474 -46.096886 9.782700
			CHANNELS 3 Xrotation Yrotation Zrotation
			JOINT LeftFoot
			{
				OFFSET -0.524474 -53.427422 -12.948200
				CHANNELS 3 Xrotation Yrotation Zrotation
				JOINT LeftToeBase
				{
					OFFSET 0.192200 -14.009700 16.364100
					CHANNELS 3 Xrotation Yrotation Zrotation
					JOINT LeftToe_End
					{
						OFFSET -1.784700 -0.561700 9.474800
						CHANNELS 3 Xrotation Yrotation Zrotation
						End Site
						{
							OFFSET 0.000000 0.000000 0.000000
						}
					}
				}
			}
		}
	}
	JOINT RightUpLeg
	{
		OFFSET -12.883000 -6.336304 -1.092800
		CHANNELS 3 Xrotation Yrotation Zrotation
		JOINT RightLeg
		{
			OFFSET -0.524587 -46.096825 9.782800
			CHANNELS 3 Xrotation Yrotation Zrotation
			JOINT RightFoot
			{
				OFFSET 0.524587 -53.427383 -12.948300
				CHANNELS 3 Xrotation Yrotation Zrotation
				JOINT RightToeBase
				{
					OFFSET -0.192200 -14.009700 16.364100
					CHANNELS 3 Xrotation Yrotation Zrotation
					JOINT RightToe_End
					{
						OFFSET 1.784700 -0.561700 9.474800
						CHANNELS 3 Xrotation Yrotation Zrotation
						End Site
						{
							OFFSET 0.000000 0.000000 0.000000
						}
					}
				}
			}
		}
	}
}
MOTION
Frames: 4
Frame Time: 0.016667
-0.629713 115.600090 -5.419937 1.019562 3.200340 -0.542216 19.039157 -0.893727 -1.202476 1.223066 -0.119062 0.413203 0.000000 0.000000 0.000000 1.222982 -0.102590 0.414475 17.491915 0.957045 1.398485 10.813742 -0.678496 3.594865 -0.000003 0.000000 -0.000000 11.672660 -37.520592 -0.316565 0.000000 0.000000 0.000000 11.271318 19.967063 -51.862931 -0.000004 -34.690790 -0.000010 2.574874 -0.956507 2.461499 -1.708911 11.916058 7.382944 4.613912 16.205061 1.361356 0.155775 9.815003 3.327212 0.000001 -0.000003 -0.000001 0.562430 2.730259 -23.275999 0.897616 3.404354 -29.533564 0.246927 1.830954 -15.360361 0.000003 -0.000002 0.000005 0.723094 3.076877 -26.493821 0.834073 3.289877 -28.445308 0.792227 3.211562 -27.707451 0.000002 -0.000002 0.000001 0.759389 3.148822 -27.218852 1.519200 4.319083 -38.743012 1.377870 4.137262 -36.826150 -0.000000 -0.000003 0.000000 2.755438 6.847017 -28.124366 1.536472 0.254074 -39.161077 0.904547 3.416545 -29.650182 -0.000000 -0.000002 -0.000004 0.491470 -2.548974 6.180815 0.000000 0.000000 0.000000 3.745284 20.212618 34.029464 0.000002 9.536109 0.000018 23.378763 19.150925 -10.871801 -1.994374 -12.184650 -7.943398 5.444747 -17.292026 -0.860482 -0.502647 -8.507754 -2.994152 -0.000001 0.000001 0.000002 0.461123 -2.494413 20.944391 1.026103 -3.640542 31.472238 0.509405 -2.616914 22.026969 -0.000003 -0.000000 -0.000001 0.535725 -2.680989 22.596337 1.057790 -3.691687 31.967638 1.049728 -3.678780 31.842239 0.000000 0.000001 0.000003 0.433995 -2.422402 20.311920 1.427562 -4.225574 37.320051 0.727765 -3.101846 26.401866 -0.000000 0.000002 -0.000003 0.161423 -1.492531 12.345137 1.468717 -4.278862 37.875011 0.858337 -3.351623 28.721529 -0.000002 0.000002 -0.000001 -13.446744 9.387739 5.871258 21.705755 -1.701438 1.795880 -9.560876 0.699931 -4.736790 -0.000067 0.000003 -0.000001 0.000000 0.000000 0.000000 -9.668776 -6.034803 -6.860867 21.553432 -9.008689 7.472955 -11.302035 -16.741091 1.001861 -0.343502 -0.000000 0.000000 -0.000000 -0.000000 0.000000 
-0.611205 115.641747 -5.316638 0.970215 3.170904 -0.542252 18.772770 -0.884501 -1.203105 1.229632 -0.117465 0.406142 0.000000 0.000000 0.000000 1.229541 -0.101461 0.407324 17.464850 0.625444 1.445075 10.818744 -1.791894 4.166016 -0.000001 -0.000000 0.000000 11.432076 -37.413406 -0.403148 0.000000 0.000000 0.000000 11.910114 20.221624 -52.024530 -0.000007 -34.586985 -0.000033 1.537125 -1.822061 2.928790 -1.708914 11.916059 7.382947 4.613914 16.205054 1.361350 0.155773 9.815000 3.327202 0.000001 -0.000002 -0.000001 0.543299 2.685384 -22.870964 0.876732 3.367319 -29.180224 0.227778 1.759786 -14.749097 0.000003 -0.000001 0.000000 0.704651 3.039379 -26.123580 0.803721 3.233328 -27.911949 0.758678 3.146950 -27.102382 -0.000002 -0.000002 0.000003 0.742647 3.115665 -26.858192 1.478268 4.267695 -38.196190 1.335117 4.079699 -36.229530 0.000001 -0.000003 -0.000001 2.720239 6.830888 -27.790658 1.481101 0.185205 -38.428700 0.844402 3.308871 -28.625019 -0.000001 -0.000004 -0.000001 0.477894 -2.717889 6.166504 0.000000 0.000000 0.000000 4.034792 19.963354 34.183263 0.000007 9.601053 -0.000007 23.696940 18.707314 -11.098297 -1.994099 -12.184459 -7.943364 5.444924 -17.291981 -0.860857 -0.502644 -8.507753 -2.994149 0.000001 -0.000001 -0.000002 0.496371 -2.584477 21.739580 1.040592 -3.664077 31.699806 0.511056 -2.621002 22.063251 -0.000004 -0.000000 -0.000001 0.569956 -2.761701 23.317438 1.074166 -3.717774 32.221284 1.050716 -3.680383 31.857754 0.000003 0.000001 0.000001 0.462905 -2.499013 20.985066 1.445570 -4.249034 37.563824 0.726423 -3.099145 26.377224 -0.000002 0.000000 0.000001 0.180808 -1.578364 13.067970 1.485679 -4.300531 38.101749 0.856217 -3.347762 28.685244 0.000001 0.000001 -0.000000 -13.261428 9.440398 5.875511 21.583664 -1.719243 1.774158 -9.577114 0.699655 -4.726428 -0.000015 0.000002 0.000001 -0.000000 0.000001 -0.000000 -9.486121 -6.012422 -6.829503 21.414969 -9.025332 7.436464 -11.286806 -16.748850 1.033289 -0.362836 -0.000010 0.000001 -0.000000 -0.000000 0.000000 
-0.596276 115.672295 -5.226212 0.923072 3.154223 -0.529362 18.532682 -0.859918 -1.227459 1.234594 -0.113719 0.407003 0.000000 0.000000 0.000000 1.234486 -0.097862 0.408096 17.433477 0.332751 1.495481 10.826399 -2.735812 4.630162 -0.000004 0.000000 -0.000000 11.198574 -37.286044 -0.490906 0.000000 0.000000 0.000000 12.400884 20.323680 -52.234442 0.000002 -34.431486 0.000004 0.428616 -2.925385 3.387619 -1.708916 11.916058 7.382944 4.613910 16.205063 1.361354 0.155778 9.814996 3.327202 0.000000 0.000001 0.000000 0.526291 2.644762 -22.505164 0.860866 3.338764 -28.908670 0.214542 1.708726 -14.311618 -0.000001 0.000000 -0.000001 0.692329 3.014047 -25.875615 0.783531 3.194960 -27.551702 0.736335 3.102973 -26.692612 -0.000002 0.000002 -0.000001 0.738389 3.107121 -26.747601 1.455595 4.238805 -37.890495 1.308579 4.043312 -35.854764 0.000001 0.000003 -0.000000 2.724811 6.836800 -27.806682 1.456352 0.153828 -38.097491 0.810165 3.245441 -28.025870 -0.000000 -0.000001 -0.000002 0.469250 -2.842995 6.172179 0.000000 0.000000 0.000000 4.088876 19.748920 34.584803 -0.000008 9.610798 -0.000011 24.143312 18.313615 -11.302991 -1.993831 -12.184331 -7.943343 5.445089 -17.291927 -0.861162 -0.502650 -8.507754 -2.994148 0.000002 0.000000 -0.000000 0.529398 -2.665748 22.460835 1.057852 -3.691786 31.968540 0.518061 -2.638183 22.215769 0.000000 0.000003 -0.000002 0.608146 -2.848536 24.097549 1.098608 -3.756187 32.596316 1.061382 -3.697445 32.023475 0.000001 0.000001 0.000002 0.504159 -2.603907 21.911621 1.480787 -4.294300 38.036531 0.740283 -3.126911 26.632485 -0.000000 0.000001 -0.000002 0.215121 -1.719459 14.260253 1.529378 -4.355523 38.680840 0.875029 -3.381878 29.005921 -0.000000 -0.000002 -0.000002 -13.097793 9.478602 5.862609 21.484772 -1.730580 1.759479 -9.593980 0.699757 -4.719992 -0.000024 -0.000001 0.000000 0.000000 0.000001 0.000000 -9.334651 -6.007793 -6.824518 21.317509 -9.032468 7.411721 -11.286361 -16.746736 1.060002 -0.370031 -0.000026 0.000001 -0.000000 -0.000002 -0.000000 
-0.584327 115.691261 -5.148118 0.876961 3.157783 -0.504049 18.318900 -0.823712 -1.271239 1.237615 -0.108356 0.414652 0.000000 0.000000 0.000000 1.237486 -0.092383 0.415663 17.402055 0.082499 1.541181 10.840836 -3.516358 4.995897 -0.000004 0.000000 -0.000000 10.974288 -37.134188 -0.580665 0.000000 0.000000 0.000000 12.738220 20.288148 -52.482484 -0.000017 -34.226785 -0.000013 -0.546867 -4.175040 3.785983 -1.708919 11.916058 7.382938 4.613917 16.205061 1.361355 0.155781 9.814997 3.327203 -0.000001 0.000001 0.000002 0.510249 2.605769 -22.155187 0.848786 3.316863 -28.700749 0.206147 1.675484 -14.027320 -0.000003 0.000003 -0.000001 0.684164 2.997155 -25.712928 0.771543 3.171913 -27.335846 0.723473 3.077317 -26.454170 0.000002 -0.000001 -0.000002 0.743591 3.117389 -26.827853 1.447904 4.228933 -37.786270 1.295827 4.025644 -35.673545 -0.000001 -0.000001 0.000001 2.760625 6.859903 -28.095800 1.456530 0.154047 -38.099779 0.797185 3.220977 -27.795865 0.000001 0.000002 -0.000001 0.465136 -2.927775 6.199371 0.000000 0.000000 0.000000 3.910886 19.563084 35.227462 0.000006 9.562530 0.000001 24.620407 18.025281 -11.454632 -1.993604 -12.184203 -7.943292 5.445228 -17.291891 -0.861497 -0.502644 -8.507754 -2.994155 -0.000000 -0.000001 0.000001 0.551025 -2.717386 22.921282 1.069496 -3.710355 32.149127 0.523368 -2.651151 22.330853 0.000001 -0.000000 0.000000 0.641223 -2.921281 24.754948 1.120461 -3.790070 32.928233 1.071930 -3.714206 32.186689 -0.000003 0.000002 -0.000003 0.549810 -2.714551 22.895788 1.520026 -4.343857 38.557514 0.757541 -3.161048 26.947275 0.000003 0.000002 -0.000005 0.260333 -1.888393 15.696808 1.584939 -4.423822 39.406657 0.901141 -3.428458 29.445342 0.000000 -0.000002 0.000001 -12.957278 9.500707 5.831125 21.411977 -1.741144 1.754009 -9.612105 0.700082 -4.716505 -0.000087 0.000000 -0.000003 -0.000000 -0.000001 -0.000000 -9.212369 -6.018914 -6.843421 21.261819 -9.030254 7.396275 -11.301904 -16.743881 1.083394 -0.365542 -0.000005 -0.000001 0.000000 -0.000000 0.000000 
